<svg
  xmlns="http://www.w3.org/2000/svg"
  viewBox="0 0 24 24"
  fill="currentColor"
>
  <path
    fill-rule="evenodd"
    d="M12 0C5.373 0 0 5.373 0 12c0 5.302 3.438 9.8 8.207 11.385.6.11.793-.26.793-.577v-2.234c-3.338.726-4.042-1.416-4.042-1.416-.546-1.387-1.333-1.757-1.333-1.757-1.089-.744.083-.729.083-.729 1.205.085 1.84 1.237 1.84 1.237 1.07 1.834 2.807 1.304 3.492.997.108-.775.418-1.305.762-1.604-2.665-.303-5.466-1.332-5.466-5.931 0-1.31.469-2.382 1.236-3.22-.124-.303-.536-1.523.117-3.176 0 0 1.008-.322 3.3 1.23a11.53 11.53 0 0 1 3-.404c1.017.005 2.04.138 3 .404 2.291-1.552 3.297-1.23 3.297-1.23.654 1.653.242 2.873.118 3.176.769.838 1.236 1.91 1.236 3.22 0 4.61-2.805 5.625-5.477 5.921.43.372.814 1.103.814 2.223v3.293c0 .32.192.694.8.576C20.565 21.796 24 17.3 24 12 24 5.373 18.627 0 12 0Z"
    clip-rule="evenodd"
  />
</svg>
