  <svg
    className="w-5 h-5"
    fill="currentColor"
    viewBox="0 0 24 24"
    xmlns="http://www.w3.org/2000/svg"
  >
    <path d="M19 0h-14c-2.761 0-5 2.239-5 5v14c0 2.761 2.239 5 5 5h14c2.761 0 5-2.239 5-5v-14c0-2.761-2.239-5-5-5zm-11 19h-3v-10h3v10zm-1.5-11.268c-.966 0-1.75-.785-1.75-1.75s.784-1.75 1.75-1.75 1.75.785 1.75 1.75-.784 1.75-1.75 1.75zm13.5 11.268h-3v-5.604c0-1.337-.027-3.063-1.869-3.063-1.871 0-2.158 1.461-2.158 2.97v5.697h-3v-10h2.881v1.367h.041c.402-.762 1.381-1.563 2.844-1.563 3.045 0 3.611 2.005 3.611 4.613v5.583z"/>
  </svg>
